<svg width="20" height="20" viewBox="0 0 20 20" fill="none" xmlns="http://www.w3.org/2000/svg">
<path d="M10.0003 18.3333C8.84755 18.3333 7.76421 18.1145 6.75033 17.677C5.73644 17.2395 4.85449 16.6458 4.10449 15.8958C3.35449 15.1458 2.76074 14.2638 2.32324 13.25C1.88574 12.2361 1.66699 11.1527 1.66699 9.99996C1.66699 8.84718 1.88574 7.76385 2.32324 6.74996C2.76074 5.73607 3.35449 4.85413 4.10449 4.10413C4.85449 3.35413 5.73644 2.76038 6.75033 2.32288C7.76421 1.88538 8.84755 1.66663 10.0003 1.66663C11.1531 1.66663 12.2364 1.88538 13.2503 2.32288C14.2642 2.76038 15.1462 3.35413 15.8962 4.10413C16.6462 4.85413 17.2399 5.73607 17.6774 6.74996C18.1149 7.76385 18.3337 8.84718 18.3337 9.99996C18.3337 11.1527 18.1149 12.2361 17.6774 13.25C17.2399 14.2638 16.6462 15.1458 15.8962 15.8958C15.1462 16.6458 14.2642 17.2395 13.2503 17.677C12.2364 18.1145 11.1531 18.3333 10.0003 18.3333ZM10.0003 14.5833C10.6253 13.9583 11.1809 13.3125 11.667 12.6458C12.0837 12.0763 12.4656 11.4513 12.8128 10.7708C13.16 10.0902 13.3337 9.41663 13.3337 8.74996C13.3337 7.83329 13.0073 7.04857 12.3545 6.39579C11.7017 5.74301 10.917 5.41663 10.0003 5.41663C9.08366 5.41663 8.29894 5.74301 7.64616 6.39579C6.99338 7.04857 6.66699 7.83329 6.66699 8.74996C6.66699 9.41663 6.8406 10.0902 7.18783 10.7708C7.53505 11.4513 7.91699 12.0763 8.33366 12.6458C8.81977 13.3125 9.37533 13.9583 10.0003 14.5833ZM10.0003 9.99996C9.6531 9.99996 9.35796 9.87843 9.11491 9.63538C8.87185 9.39232 8.75033 9.09718 8.75033 8.74996C8.75033 8.40274 8.87185 8.1076 9.11491 7.86454C9.35796 7.62149 9.6531 7.49996 10.0003 7.49996C10.3475 7.49996 10.6427 7.62149 10.8857 7.86454C11.1288 8.1076 11.2503 8.40274 11.2503 8.74996C11.2503 9.09718 11.1288 9.39232 10.8857 9.63538C10.6427 9.87843 10.3475 9.99996 10.0003 9.99996Z" fill="#E6E6E6"/>
</svg>
