<svg width="40" height="40" viewBox="0 0 40 40" fill="none" xmlns="http://www.w3.org/2000/svg">
<path d="M16.1253 22.8333L17.5837 18.0833L13.7503 15H18.5003L20.0003 10.3333L21.5003 15H26.2503L22.3753 18.0833L23.8337 22.8333L20.0003 19.875L16.1253 22.8333ZM10.0003 38.3333V25.4583C8.94477 24.2916 8.12533 22.9583 7.54199 21.4583C6.95866 19.9583 6.66699 18.3611 6.66699 16.6666C6.66699 12.9444 7.95866 9.79165 10.542 7.20831C13.1253 4.62498 16.2781 3.33331 20.0003 3.33331C23.7225 3.33331 26.8753 4.62498 29.4587 7.20831C32.042 9.79165 33.3337 12.9444 33.3337 16.6666C33.3337 18.3611 33.042 19.9583 32.4587 21.4583C31.8753 22.9583 31.0559 24.2916 30.0003 25.4583V38.3333L20.0003 35L10.0003 38.3333ZM20.0003 26.6666C22.7781 26.6666 25.1392 25.6944 27.0837 23.75C29.0281 21.8055 30.0003 19.4444 30.0003 16.6666C30.0003 13.8889 29.0281 11.5278 27.0837 9.58331C25.1392 7.63887 22.7781 6.66665 20.0003 6.66665C17.2225 6.66665 14.8614 7.63887 12.917 9.58331C10.9725 11.5278 10.0003 13.8889 10.0003 16.6666C10.0003 19.4444 10.9725 21.8055 12.917 23.75C14.8614 25.6944 17.2225 26.6666 20.0003 26.6666ZM13.3337 33.375L20.0003 31.6666L26.667 33.375V28.2083C25.6948 28.7639 24.6462 29.2014 23.5212 29.5208C22.3962 29.8403 21.2225 30 20.0003 30C18.7781 30 17.6045 29.8403 16.4795 29.5208C15.3545 29.2014 14.3059 28.7639 13.3337 28.2083V33.375Z" fill="#E6E6E6"/>
</svg>
