<svg width="40" height="40" viewBox="0 0 40 40" fill="none" xmlns="http://www.w3.org/2000/svg">
<path d="M10 31.6666V33.3333C10 33.8055 9.84028 34.2014 9.52083 34.5208C9.20139 34.8403 8.80556 35 8.33333 35H6.66667C6.19444 35 5.79861 34.8403 5.47917 34.5208C5.15972 34.2014 5 33.8055 5 33.3333V20L8.5 9.99998C8.66667 9.49998 8.96528 9.0972 9.39583 8.79165C9.82639 8.48609 10.3056 8.33331 10.8333 8.33331H29.1667C29.6944 8.33331 30.1736 8.48609 30.6042 8.79165C31.0347 9.0972 31.3333 9.49998 31.5 9.99998L35 20V33.3333C35 33.8055 34.8403 34.2014 34.5208 34.5208C34.2014 34.8403 33.8056 35 33.3333 35H31.6667C31.1944 35 30.7986 34.8403 30.4792 34.5208C30.1597 34.2014 30 33.8055 30 33.3333V31.6666H10ZM9.66667 16.6666H30.3333L28.5833 11.6666H11.4167L9.66667 16.6666ZM12.5 26.6666C13.1944 26.6666 13.7847 26.4236 14.2708 25.9375C14.7569 25.4514 15 24.8611 15 24.1666C15 23.4722 14.7569 22.8819 14.2708 22.3958C13.7847 21.9097 13.1944 21.6666 12.5 21.6666C11.8056 21.6666 11.2153 21.9097 10.7292 22.3958C10.2431 22.8819 10 23.4722 10 24.1666C10 24.8611 10.2431 25.4514 10.7292 25.9375C11.2153 26.4236 11.8056 26.6666 12.5 26.6666ZM27.5 26.6666C28.1944 26.6666 28.7847 26.4236 29.2708 25.9375C29.7569 25.4514 30 24.8611 30 24.1666C30 23.4722 29.7569 22.8819 29.2708 22.3958C28.7847 21.9097 28.1944 21.6666 27.5 21.6666C26.8056 21.6666 26.2153 21.9097 25.7292 22.3958C25.2431 22.8819 25 23.4722 25 24.1666C25 24.8611 25.2431 25.4514 25.7292 25.9375C26.2153 26.4236 26.8056 26.6666 27.5 26.6666ZM8.33333 28.3333H31.6667V20H8.33333V28.3333Z" fill="#E6E6E6"/>
</svg>
