<svg width="40" height="40" viewBox="0 0 40 40" fill="none" xmlns="http://www.w3.org/2000/svg">
<path d="M18.2503 25.9166L27.667 16.5L25.292 14.125L18.2503 21.1666L14.7503 17.6666L12.3753 20.0416L18.2503 25.9166ZM20.0003 36.6666C16.1392 35.6944 12.9517 33.4791 10.4378 30.0208C7.92394 26.5625 6.66699 22.7222 6.66699 18.5V8.33331L20.0003 3.33331L33.3337 8.33331V18.5C33.3337 22.7222 32.0767 26.5625 29.5628 30.0208C27.0489 33.4791 23.8614 35.6944 20.0003 36.6666ZM20.0003 33.1666C22.8892 32.25 25.2781 30.4166 27.167 27.6666C29.0559 24.9166 30.0003 21.8611 30.0003 18.5V10.625L20.0003 6.87498L10.0003 10.625V18.5C10.0003 21.8611 10.9448 24.9166 12.8337 27.6666C14.7225 30.4166 17.1114 32.25 20.0003 33.1666Z" fill="#E6E6E6"/>
</svg>
