<svg width="160" height="18" viewBox="0 0 160 18" fill="none" xmlns="http://www.w3.org/2000/svg">
<path d="M22.2009 13.5H9.12004C8.45911 13.5 7.8349 13.3843 7.24741 13.1529C6.65992 12.9129 6.14587 12.5914 5.70525 12.1886C5.27381 11.7771 4.92958 11.2971 4.67255 10.7486C4.42471 10.2 4.30078 9.61714 4.30078 9C4.30078 8.38286 4.42471 7.8 4.67255 7.25143C4.92958 6.70286 5.27381 6.22714 5.70525 5.82429C6.14587 5.41286 6.65992 5.09143 7.24741 4.86C7.8349 4.62 8.45911 4.5 9.12004 4.5H22.2009V7.84286H10.015C9.6295 7.84286 9.30363 7.94571 9.03742 8.15143C8.77122 8.35714 8.63811 8.64 8.63811 9C8.63811 9.36 8.77122 9.64286 9.03742 9.84857C9.30363 10.0543 9.6295 10.1571 10.015 10.1571H22.2009V13.5Z" fill="#CA0000"/>
<path d="M43.1313 13.5H38.2294L37.1141 12.2143H28.6322L27.5169 13.5H22.615L30.4222 4.5H35.3241L43.1313 13.5ZM34.8835 9.64286L32.8732 7.32857L30.8629 9.64286H34.8835Z" fill="#CA0000"/>
<path d="M43.6858 4.5H58.1436C58.7495 4.5 59.2911 4.60286 59.7684 4.80857C60.2457 5.01429 60.6496 5.28857 60.9801 5.63143C61.3106 5.96571 61.563 6.34714 61.7374 6.77571C61.9118 7.20429 61.999 7.64571 61.999 8.1C61.999 8.48571 61.9302 8.86714 61.7925 9.24429C61.664 9.62143 61.4712 9.96857 61.2142 10.2857C60.9663 10.6029 60.6588 10.8771 60.2916 11.1086C59.9336 11.34 59.5251 11.5071 59.0662 11.61L61.999 13.5H56.3811L53.586 11.7H48.0369V13.5H43.6858V4.5ZM48.0369 7.58571V8.61429H57.0421C57.446 8.61429 57.6479 8.44286 57.6479 8.1C57.6479 7.75714 57.446 7.58571 57.0421 7.58571H48.0369Z" fill="#CA0000"/>
<path d="M65.8355 9.64286C65.3673 9.64286 64.9451 9.58286 64.5687 9.46286C64.2015 9.33429 63.8894 9.16286 63.6324 8.94857C63.3754 8.72571 63.178 8.46 63.0403 8.15143C62.9026 7.84286 62.8338 7.50429 62.8338 7.13571C62.8338 6.76714 62.9026 6.42429 63.0403 6.10714C63.178 5.78143 63.3754 5.50286 63.6324 5.27143C63.8894 5.03143 64.2015 4.84286 64.5687 4.70571C64.9451 4.56857 65.3673 4.5 65.8355 4.5H89.2698V7.58571H67.6393C67.474 7.58571 67.3547 7.63286 67.2813 7.72714C67.217 7.81286 67.1849 7.89429 67.1849 7.97143C67.1849 8.04857 67.217 8.13429 67.2813 8.22857C67.3547 8.31429 67.474 8.35714 67.6393 8.35714H78.283C78.7511 8.35714 79.1688 8.42143 79.536 8.55C79.9123 8.67 80.229 8.84143 80.486 9.06429C80.7431 9.27857 80.9404 9.54 81.0781 9.84857C81.2158 10.1571 81.2847 10.4957 81.2847 10.8643C81.2847 11.2329 81.2158 11.58 81.0781 11.9057C80.9404 12.2229 80.7431 12.5014 80.486 12.7414C80.229 12.9729 79.9123 13.1571 79.536 13.2943C79.1688 13.4314 78.7511 13.5 78.283 13.5H63.3846V10.4143H76.4792C76.6444 10.4143 76.7591 10.3714 76.8234 10.2857C76.8968 10.1914 76.9336 10.1057 76.9336 10.0286C76.9336 9.95143 76.8968 9.87 76.8234 9.78429C76.7591 9.69 76.6444 9.64286 76.4792 9.64286H65.8355Z" fill="#CA0000"/>
<path d="M96.2371 7.58571H89.2698V4.5H107.583V7.58571H100.588V13.5H96.2371V7.58571Z" fill="#CA0000"/>
<path d="M108.687 4.5H113.038V13.5H108.687V4.5Z" fill="#CA0000"/>
<path d="M114.146 4.5H119.957L125.313 10.6714L130.669 4.5H136.7V13.5H132.349V8.21571L127.764 13.5H122.862L118.497 8.47286V13.5H114.146V4.5Z" fill="#CA0000"/>
<path d="M137.799 4.5H155.699V6.81429H142.15V7.84286H155.699V10.1571H142.15V11.1857H155.699V13.5H137.799V4.5Z" fill="#CA0000"/>
</svg>
